<?xml version="1.0" encoding="UTF-8" standalone="no"?>
<!-- Created with Inkscape (http://www.inkscape.org/) -->

<svg
   width="512"
   height="512"
   viewBox="0 0 135.46666 135.46667"
   version="1.1"
   id="svg1"
   inkscape:version="1.4.2 (ebf0e940d0, 2025-05-08)"
   sodipodi:docname="logo-monochrome.svg"
   inkscape:export-filename="logo-monochrome.png"
   inkscape:export-xdpi="192"
   inkscape:export-ydpi="192"
   xmlns:inkscape="http://www.inkscape.org/namespaces/inkscape"
   xmlns:sodipodi="http://sodipodi.sourceforge.net/DTD/sodipodi-0.dtd"
   xmlns="http://www.w3.org/2000/svg"
   xmlns:svg="http://www.w3.org/2000/svg">
  <sodipodi:namedview
     id="namedview1"
     pagecolor="#ffffff"
     bordercolor="#000000"
     borderopacity="0.25"
     inkscape:showpageshadow="2"
     inkscape:pageopacity="0.0"
     inkscape:pagecheckerboard="true"
     inkscape:deskcolor="#d1d1d1"
     inkscape:document-units="px"
     inkscape:zoom="0.79833447"
     inkscape:cx="346.97236"
     inkscape:cy="506.05356"
     inkscape:window-width="1920"
     inkscape:window-height="1054"
     inkscape:window-x="0"
     inkscape:window-y="26"
     inkscape:window-maximized="1"
     inkscape:current-layer="g6" />
  <defs
     id="defs1" />
  <g
     inkscape:groupmode="layer"
     id="layer2"
     inkscape:label="Layer 2"
     transform="translate(-5.6106177,7.2869434)">
    <path
       d="M 87.150342,83.873383 H 63.638083 c -2.271701,0 -4.100525,-1.828824 -4.100525,-4.100525 V 37.259174 H 47.22048 c -2.2717,0 -4.100524,1.828824 -4.100524,4.100525 v 51.617004 c 0,2.271701 1.828824,4.100525 4.100524,4.100525 h 35.829338 c 2.2717,0 4.100524,-1.828824 4.100524,-4.100525 z"
       style="display:inline;opacity:1;fill:#656565;stroke-width:1.52311;stroke-linecap:square;paint-order:stroke fill markers;fill-opacity:0.5"
       id="path2"
       inkscape:label="book-bottom" />
    <g
       id="g6"
       transform="translate(-0.14388201,2.4385368)">
      <path
         d="m 97.900295,21.616792 v 27.16475 h -0.0052 l -7.17579,-5.036902 -7.080704,5.034318 V 21.616792 H 63.781965 c -2.271701,0 -4.100525,1.828824 -4.100525,4.100525 v 51.617004 c 0,2.271701 1.828824,4.100525 4.100525,4.100525 h 35.829337 c 2.271698,0 4.100528,-1.828824 4.100528,-4.100525 V 25.717317 c 0,-2.271701 -1.82883,-4.100525 -4.100528,-4.100525 z"
         style="display:inline;opacity:1;fill:#656565;stroke-width:1.52311;stroke-linecap:square;paint-order:stroke fill markers;fill-opacity:1"
         id="path1" />
      <path
         d="m 83.638572,21.616532 v 27.162683 l 7.08071,-5.034318 7.175794,5.036902 h 0.005 V 21.616532 Z"
         style="display:inline;opacity:1;fill:#595959;stroke-width:1.5;stroke-linecap:square;paint-order:stroke fill markers;fill-opacity:0.30000001"
         id="path6"
         inkscape:label="bookmark" />
    </g>
  </g>
</svg>
